<?xml version="1.0" standalone="no"?><!DOCTYPE svg PUBLIC "-//W3C//DTD SVG 1.1//EN" "http://www.w3.org/Graphics/SVG/1.1/DTD/svg11.dtd"><svg t="1514862842196" class="icon" style="" viewBox="0 0 1024 1024" version="1.1" xmlns="http://www.w3.org/2000/svg" p-id="1239" xmlns:xlink="http://www.w3.org/1999/xlink" width="200" height="200"><defs><style type="text/css"></style></defs><path d="M927.954 841.332H97.995V270.335h199.644v-93.046h430.669v93.046h199.687l-0.041 570.997z m-790.003-39.71h750.045l0.099-305.526h-92.841v73.114h-39.957v-73.114H582.781v79.636h-146.05v-79.636H297.223v73.114h-39.956v-73.114H137.879l0.072 305.526z m404.925-265.687V429.696h-66.4v106.239h66.4z m145.473-318.936H337.598v53.336h350.751v-53.336z m-550.514 93.176l0.035 146.081h119.397v-46.51h39.956v46.51h139.508v-66.473h146.05v66.473h172.516v-46.51h39.957v46.51h92.854l0.047-146.081h-750.32z" p-id="1240" fill="#ffffff"></path></svg>