<?xml version="1.0" standalone="no"?><!DOCTYPE svg PUBLIC "-//W3C//DTD SVG 1.1//EN" "http://www.w3.org/Graphics/SVG/1.1/DTD/svg11.dtd"><svg t="1514862831371" class="icon" style="" viewBox="0 0 1024 1024" version="1.1" xmlns="http://www.w3.org/2000/svg" p-id="1082" xmlns:xlink="http://www.w3.org/1999/xlink" width="200" height="200"><defs><style type="text/css"></style></defs><path d="M509.862 467.586h-49.871v50.251h49.871v-50.251z m-49.871 143.647h49.871v-50.251h-49.871v50.251z m-37.365-50.251h-50.068v50.251h50.068v-50.251z m174.671-43.339v-50.056h-49.871v50.056h49.871z m174.672 0v-50.056h-49.873v50.056h49.873z m-87.238 0v-50.056h-50.066v50.056h50.066zM372.558 704.847h50.068v-50.251h-50.068v50.251zM135.559 424.03h704.969v75.166l37.557-37.557V249.166H684.624V192.98h-37.363v56.186H329.013V192.98h-37.555v56.186H98.004v580.435h412.119l37.314-37.314H135.559V424.03z m0-137.551h155.898v56.341h37.555v-56.341h318.249v56.341h37.363v-56.341h155.904v100.042H135.559V286.479z m112.198 181.107h-49.871v50.251h49.871v-50.251z m0 93.396h-49.871v50.251h49.871v-50.251z m-49.872 143.865h49.871v-50.251h-49.871v50.251z m642.643 87.44H759.26l-37.314 37.314h156.139V673.462l-37.557 37.557v81.268z m-555.208-87.44h49.87v-50.251h-49.87v50.251z m49.869-143.865h-49.87v50.251h49.87v-50.251z m87.437-93.396h-50.068v50.251h50.068v-50.251z m-87.437 0h-49.87v50.251h49.87v-50.251z m486.745 96.916l52.958 52.956 53.104-53.102-52.956-52.957-53.106 53.103z m-17.499 17.502l-185.18 185.179-26.626 79.581 79.581-26.624 185.178-185.18-52.953-52.956z" p-id="1083" fill="#ffffff"></path></svg>